<?xml version="1.0" encoding="UTF-8"?>
<!DOCTYPE svg PUBLIC "-//W3C//DTD SVG 1.1//EN" "http://www.w3.org/Graphics/SVG/1.1/DTD/svg11.dtd">
<!-- Creator: CorelDRAW 2017 -->
<svg xmlns="http://www.w3.org/2000/svg" xml:space="preserve" width="7127px" height="5963px" version="1.1" style="shape-rendering:geometricPrecision; text-rendering:geometricPrecision; image-rendering:optimizeQuality; fill-rule:evenodd; clip-rule:evenodd"
viewBox="0 0 8707.11 7284.19"
 xmlns:xlink="http://www.w3.org/1999/xlink">
 <defs>
  <style type="text/css">
   <![CDATA[
    .fil0 {fill:#18D26E}
   ]]>
  </style>
 </defs>
 <g id="Layer_x0020_1">
  <metadata id="CorelCorpID_0Corel-Layer"/>
  <path class="fil0" d="M1272.32 0l6162.47 0c702.56,0 1272.32,569.76 1272.32,1272.32l0 4739.54c0,702.57 -569.76,1272.32 -1272.32,1272.32l-6162.47 0.01c-702.56,-0.01 -1272.32,-569.76 -1272.32,-1272.33l0 -4739.54c0,-702.56 569.76,-1272.32 1272.33,-1272.32l-0.01 0zm211 3249.4l-467.07 0 0 -2440.66 894.08 0c216.73,0 402.63,76.68 556.61,230.05 158.03,153.98 237.02,339.31 237.02,554.87l0 31.91c0,215.56 -78.99,400.89 -237.02,554.87 -155.16,152.19 -341.06,228.31 -556.61,228.31l-427.01 0 0 840.65 0 0zm6001.2 -1581.21l-1054.31 1058.41c115.57,67.05 243.32,100.45 383.22,100.45 102.81,0 198.7,-19.15 286.39,-57.52 87.75,-38.93 169.1,-95.28 244.04,-170.22 150.45,-147.58 226,-334.66 226,-562.97 0,-134.15 -28.53,-256.89 -85.34,-368.15l0 0zm-1343.57 769.91l1071.83 -1075.98c-118.74,-78.37 -255.87,-117.66 -411.54,-117.66 -218.48,0 -398.59,76.12 -540.32,227.74 -145.28,146.4 -217.86,334.09 -217.86,564.14 0,152.19 32.63,286.09 97.89,401.76l0 0zm-1046.17 1559.03l0 456.62 0 353.66 -376.14 0 0 -353.66 -290.81 0 0 1984.61 -477.57 0 0 -1984.61 -279.22 0 0 353.66 -376.15 0 0 -353.66 0 -456.62 376.15 0 1047.6 0 376.14 0 0 0zm2220.09 549.34l-462.82 675.91 462.82 670.48 0 -265.39 376.09 0 0 810.32 -376.09 0 -178.72 0 -750.6 -1089.34 0 1089.34 -463.64 0 0 -2440.66 463.64 0 0 1091.04 750.6 -1091.04 178.72 0 376.09 0 0 810.28 -376.09 0 0 -260.94zm-5622.96 1890.76l-675.66 0 0 -442.73 664.03 0c44.16,0 77.86,-19.16 101.68,-58.09 21.46,-36.01 32.53,-127.25 32.53,-274.21l0 -1264.54 -422.15 0 0 409.75 -376.09 0 0 -409.75 0 -400.53 376.09 0 422.15 0 399.3 0 53.84 0 0 1586.03c0,123.76 -4.61,228.36 -13.32,314.93 -9.33,85.96 -23.26,154.49 -42.42,205.67 -45.33,110.95 -111.56,192.86 -198.7,245.16 -90.67,58.65 -197.52,88.31 -321.28,88.31zm5120.34 -3188.39c-345.67,0 -634.98,-119.1 -868.57,-357.3 -231.23,-247.51 -346.84,-532.74 -346.84,-855.76 0,-229.49 54.6,-435.77 163.25,-619.36 103.99,-186.46 251.57,-334.04 442.12,-444.43 189.43,-108.65 392.74,-163.25 610.04,-163.25 324.2,0 605.38,119.1 843.57,357.29 239.94,242.86 360.21,532.74 360.21,869.75 0,344.49 -116.17,633.24 -348.58,866.21 -234.71,231.23 -519.37,346.85 -855.2,346.85l0 0zm-1777.3 1.18l-498.52 0 -443.87 -834.3 -270.72 0 0 834.3 -467.07 0 0 -2441.28 894.7 0c217.24,0 402.62,76.68 555.99,230.05 152.8,152.81 229.49,338.7 229.49,556.61l0 23.82c0,329.99 -159.21,573.41 -477.57,730.26l477.57 900.54 0 0zm-830.82 -1287.44c92.36,0 173.14,-35.45 241.12,-105.78 67.97,-67.97 101.68,-151.62 101.68,-250.39 0,-96.45 -33.71,-177.18 -101.68,-242.24 -66.8,-65.67 -147.58,-98.76 -241.12,-98.76l-382.29 0 0 697.17 382.29 0zm-2339.7 -6.97c97.64,0 178.37,-32.58 241.73,-97.63 65.06,-63.31 97.02,-144.66 97.02,-242.24 0,-98.2 -31.96,-181.85 -97.02,-251.57 -64.49,-67.97 -145.27,-102.24 -241.73,-102.24l-381.11 0 0 693.68 381.11 0z"/>
 </g>
</svg>
