<?xml version="1.0" encoding="UTF-8"?>
<!DOCTYPE svg PUBLIC "-//W3C//DTD SVG 1.1//EN" "http://www.w3.org/Graphics/SVG/1.1/DTD/svg11.dtd">
<!-- Creator: CorelDRAW X7 -->
<svg xmlns="http://www.w3.org/2000/svg" xml:space="preserve" width="91.16mm" height="96.0602mm" version="1.1" style="shape-rendering:geometricPrecision; text-rendering:geometricPrecision; image-rendering:optimizeQuality; fill-rule:evenodd; clip-rule:evenodd"
viewBox="0 0 9116 9606"
 xmlns:xlink="http://www.w3.org/1999/xlink">
 <defs>
  <style type="text/css">
   <![CDATA[
    .fil1 {fill:#18D26E}
    .fil0 {fill:white;fill-opacity:0.031373}
   ]]>
  </style>
 </defs>
 <g id="Layer_x0020_1">
  <metadata id="CorelCorpID_0Corel-Layer"/>
  <path class="fil0" d="M5562 6918c624,0 977,55 1384,-189l976 -679c0,2686 326,2361 -2170,2361 -1492,0 -3012,0 -4504,0 0,-760 -109,-570 1112,-1384l3609 -2469c163,-109 325,-217 515,-326l1547 -1085c217,-135 895,-624 1031,-678 0,-407 81,-1709 -82,-2035 -81,-163 -190,-271 -379,-353 -82,-54 -190,-54 -353,-81 -2768,0 -5508,0 -8248,0l0 5589c488,-353 4422,-2957 4504,-3120 -570,0 -1547,-81 -2008,54 -326,82 -1004,597 -1302,787 0,-353 0,-705 0,-1058 0,-434 -54,-651 217,-895 217,-217 515,-163 922,-163l5535 0c0,705 81,597 -543,1004 -325,217 -624,434 -949,651 -326,217 -624,407 -950,651l-4938 3364c-244,163 -461,326 -461,733 0,380 -27,1248 27,1546 109,516 679,461 1140,461l7922 0 0 -5806 -4504 3093 950 27 0 0z"/>
  <path class="fil1" d="M5155 6023c380,0 597,27 841,-108l570 -380c0,1573 190,1383 -1303,1383 -895,0 -1790,0 -2686,0 0,-434 -81,-325 679,-813l2143 -1493c109,-54 190,-108 299,-190l922 -624c136,-81 543,-379 624,-407 0,-244 54,-1031 -27,-1221 -54,-108 -136,-162 -244,-217 -55,-27 -109,-54 -217,-54 -1628,0 -3283,0 -4911,0l0 3337c271,-190 2632,-1763 2686,-1845 -353,0 -923,-54 -1221,28 -163,54 -597,352 -760,461 0,-217 0,-407 0,-624 0,-272 -27,-407 109,-543 163,-136 325,-108 570,-108l3310 0c0,434 54,352 -326,596 -190,136 -380,272 -570,407 -190,136 -352,245 -570,380l-2957 2008c-135,108 -271,217 -271,434 0,244 0,760 27,950 54,298 407,271 678,271l4721 0 0 -3473 -2686 1845 570 0 0 0z"/>
 </g>
</svg>
